<svg id="visual" viewBox="0 0 1030 200" width="1030" height="200" xmlns="http://www.w3.org/2000/svg" xmlns:xlink="http://www.w3.org/1999/xlink" version="1.1"><rect x="0" y="0" width="1030" height="200" fill="#fff"></rect><path d="M0 168L24.5 168.8C49 169.7 98 171.3 147 172C196 172.7 245 172.3 294 169.7C343 167 392 162 441.2 157C490.3 152 539.7 147 588.8 142.7C638 138.3 687 134.7 736 137.8C785 141 834 151 883 149.8C932 148.7 981 136.3 1005.5 130.2L1030 124L1030 201L1005.5 201C981 201 932 201 883 201C834 201 785 201 736 201C687 201 638 201 588.8 201C539.7 201 490.3 201 441.2 201C392 201 343 201 294 201C245 201 196 201 147 201C98 201 49 201 24.5 201L0 201Z" fill="#4433F4" stroke-linecap="round" stroke-linejoin="miter"></path></svg>