<svg id="visual" viewBox="0 0 900 100" width="900" height="100" xmlns="http://www.w3.org/2000/svg" xmlns:xlink="http://www.w3.org/1999/xlink" version="1.1"><rect x="0" y="0" width="900" height="100" fill="#4433F4"></rect><path d="M0 58L21.5 52.7C43 47.3 86 36.7 128.8 34.5C171.7 32.3 214.3 38.7 257.2 44.3C300 50 343 55 385.8 55C428.7 55 471.3 50 514.2 44C557 38 600 31 642.8 28.7C685.7 26.3 728.3 28.7 771.2 31.8C814 35 857 39 878.5 41L900 43L900 101L878.5 101C857 101 814 101 771.2 101C728.3 101 685.7 101 642.8 101C600 101 557 101 514.2 101C471.3 101 428.7 101 385.8 101C343 101 300 101 257.2 101C214.3 101 171.7 101 128.8 101C86 101 43 101 21.5 101L0 101Z" fill="#3a0589" stroke-linecap="round" stroke-linejoin="miter"></path></svg>