<svg id="visual" viewBox="0 0 900 100" width="900" height="100" xmlns="http://www.w3.org/2000/svg" xmlns:xlink="http://www.w3.org/1999/xlink" version="1.1"><rect x="0" y="0" width="900" height="100" fill="#fff"></rect><path d="M0 57L16.7 57.8C33.3 58.7 66.7 60.3 100 57C133.3 53.7 166.7 45.3 200 45.8C233.3 46.3 266.7 55.7 300 60.5C333.3 65.3 366.7 65.7 400 64.2C433.3 62.7 466.7 59.3 500 59.3C533.3 59.3 566.7 62.7 600 59.5C633.3 56.3 666.7 46.7 700 45.5C733.3 44.3 766.7 51.7 800 57.3C833.3 63 866.7 67 883.3 69L900 71L900 101L883.3 101C866.7 101 833.3 101 800 101C766.7 101 733.3 101 700 101C666.7 101 633.3 101 600 101C566.7 101 533.3 101 500 101C466.7 101 433.3 101 400 101C366.7 101 333.3 101 300 101C266.7 101 233.3 101 200 101C166.7 101 133.3 101 100 101C66.7 101 33.3 101 16.7 101L0 101Z" fill="#4433F4" stroke-linecap="round" stroke-linejoin="miter"></path></svg>