<?xml version="1.0" encoding="UTF-8"?>
<svg version="1.1" xmlns="http://www.w3.org/2000/svg" width="100" height="100">
<path d="M0 0 C8.64822802 6.87119486 15.44311132 18.01837448 17 29 C18.40895106 46.55709566 15.56638733 59.95954698 4.4140625 73.99609375 C-3.81286908 83.00558711 -15.56118495 88.6401856 -27.6484375 89.3125 C-44.13318085 89.87527929 -57.29779856 86.1831071 -69.75 74.8125 C-80.88341536 62.87619411 -83.80272194 49.59143924 -83.34375 33.85546875 C-82.66010765 21.18611097 -76.33281061 9.26446012 -67.0703125 0.625 C-46.64754218 -15.40494803 -20.73790664 -15.44661826 0 0 Z " fill="#F3FBFC" transform="translate(83,11)"/>
<path d="M0 0 C-0.33 0.99 -0.66 1.98 -1 3 C-2.32 3 -3.64 3 -5 3 C-5 3.99 -5 4.98 -5 6 C-3.81921875 6.01417969 -2.6384375 6.02835938 -1.421875 6.04296875 C0.13545542 6.08987629 1.6927459 6.13812365 3.25 6.1875 C4.02730469 6.19330078 4.80460937 6.19910156 5.60546875 6.20507812 C9.77543132 6.3654613 11.42235456 6.4498193 14.546875 9.42578125 C16 12 16 12 16 14 C15.401875 14.103125 14.80375 14.20625 14.1875 14.3125 C11.66608978 15.10494321 10.80534232 16.11943508 9 18 C7.67972145 18.69216095 6.34738144 19.36220264 5 20 C6.60681641 20.07347656 6.60681641 20.07347656 8.24609375 20.1484375 C9.64325639 20.22345294 11.0403905 20.2990013 12.4375 20.375 C13.14455078 20.4059375 13.85160156 20.436875 14.58007812 20.46875 C16.39239188 20.57280629 18.19817988 20.77919892 20 21 C22.85719721 26.71439442 21.37533174 34.83844771 19.5 40.6875 C15.89169828 49.43069263 10.05048779 55.26681285 1.43359375 59.0703125 C-8.99820535 63.05549418 -19.59990465 63.48224968 -30 59 C-38.82089577 54.5534009 -43.7494223 49.48990772 -48.12890625 40.74609375 C-49.29696976 37.06381282 -49.38169601 33.51385201 -49.375 29.6875 C-49.37628906 28.93218994 -49.37757812 28.17687988 -49.37890625 27.39868164 C-49.26984643 21.66746411 -48.27261154 17.8066482 -45 13 C-39.39 13 -33.78 13 -28 13 C-27.67 13.66 -27.34 14.32 -27 15 C-25.68 14.67 -24.36 14.34 -23 14 C-23.33 15.65 -23.66 17.3 -24 19 C-20.48994665 17.3619751 -17.54456151 15.96865509 -15 13 C-15.99 13 -16.98 13 -18 13 C-18 12.34 -18 11.68 -18 11 C-10.92290974 9.50775341 -6.75973286 9.97089626 -0.6171875 13.87109375 C-0.08351562 14.24363281 0.45015625 14.61617187 1 15 C-4.79960068 10.0289137 -9.01235279 8.6144266 -16.5703125 8.7265625 C-19.79269529 9.08921008 -22.16497803 10.4835929 -25 12 C-27.875 11.6875 -27.875 11.6875 -30 11 C-30 10.34 -30 9.68 -30 9 C-30.763125 9.0825 -31.52625 9.165 -32.3125 9.25 C-33.199375 9.1675 -34.08625 9.085 -35 9 C-36.66796875 6.984375 -36.66796875 6.984375 -38 5 C-36.29521409 4.03537025 -34.58598588 3.07858946 -32.875 2.125 C-31.92367187 1.59132813 -30.97234375 1.05765625 -29.9921875 0.5078125 C-20.22128405 -4.41590647 -9.90592125 -4.66161 0 0 Z " fill="#225977" transform="translate(64,13)"/>
<path d="M0 0 C0.99 0 1.98 0 3 0 C3 1.32 3 2.64 3 4 C3.99 4.33 4.98 4.66 6 5 C7.1875 8.0625 7.1875 8.0625 8 11 C8.66 10.01 9.32 9.02 10 8 C10.08636719 8.7734375 10.17273437 9.546875 10.26171875 10.34375 C11.43934452 19.07330613 13.50009925 25.2183171 20.3125 31 C21.199375 31.66 22.08625 32.32 23 33 C24.32 32.34 25.64 31.68 27 31 C27 27.48283697 26.17554415 26.62878252 24 24 C24.5775 24.309375 25.155 24.61875 25.75 24.9375 C28.7646204 26.36547957 28.7646204 26.36547957 32 27 C33.77190909 25.64555699 33.77190909 25.64555699 35 24 C35.66 24.33 36.32 24.66 37 25 C36.21753906 25.69867188 35.43507812 26.39734375 34.62890625 27.1171875 C33.60662828 28.0362998 32.58450065 28.95557934 31.5625 29.875 C31.04623047 30.33519531 30.52996094 30.79539062 29.99804688 31.26953125 C27.10512063 33.81793085 27.10512063 33.81793085 25 37 C25.66 37 26.32 37 27 37 C27 37.99 27 38.98 27 40 C29.18264914 40.99680731 29.18264914 40.99680731 32 41 C34.30936209 39.24796792 36.1826238 37.61198408 38.1875 35.5625 C43.79065164 30 43.79065164 30 46 30 C47.01577335 28.30099815 48.0119898 26.59029549 49 24.875 C49.556875 23.92367187 50.11375 22.97234375 50.6875 21.9921875 C52.12447482 18.71622704 52.16011434 16.53252265 52 13 C52.33 12.34 52.66 11.68 53 11 C53.66 11 54.32 11 55 11 C55 10.01 55 9.02 55 8 C58.77714263 5.48190491 61.59516163 6 66 6 C66.67514302 16.74602635 65.32457339 25.36388279 58.375 33.875 C50.92836046 41.61230763 41.17105063 44.95751372 30.625 45.3125 C20.43773282 45.05992313 11.89344676 41.44363001 4 35 C1.58495175 32.18485394 -0.32406546 29.30515313 -2 26 C-2.37769531 25.26652344 -2.75539063 24.53304687 -3.14453125 23.77734375 C-4.34409568 19.88286744 -4.21320783 16.23488218 -4.125 12.1875 C-4.11597656 11.39923828 -4.10695313 10.61097656 -4.09765625 9.79882812 C-4.07422504 7.86575334 -4.03835838 5.9328362 -4 4 C-3.67 4.66 -3.34 5.32 -3 6 C-2.34 5.67 -1.68 5.34 -1 5 C-0.34444881 2.47266765 -0.34444881 2.47266765 0 0 Z " fill="#225969" transform="translate(19,30)"/>
<path d="M0 0 C0 3 0 3 -2 6 C-2.27349896 7.55535267 -2.49798529 9.11969651 -2.6875 10.6875 C-3.80249657 16.67189568 -6.65280115 19.90646064 -11 24 C-11.63035156 24.60328125 -12.26070312 25.2065625 -12.91015625 25.828125 C-17.50116822 30 -17.50116822 30 -21 30 C-21 30.99 -21 31.98 -21 33 C-22.65 33 -24.3 33 -26 33 C-26 32.01 -26 31.02 -26 30 C-26.66 30 -27.32 30 -28 30 C-26.49650623 26.33213607 -24.36271208 24.31089607 -21.375 21.75 C-20.55773437 21.04359375 -19.74046875 20.3371875 -18.8984375 19.609375 C-18.27195312 19.07828125 -17.64546875 18.5471875 -17 18 C-17.61617187 18.50015625 -18.23234375 19.0003125 -18.8671875 19.515625 C-21 21 -21 21 -23.125 20.75 C-25 20 -25 20 -27 19 C-26.01 20.32 -25.02 21.64 -24 23 C-25.32 24.32 -26.64 25.64 -28 27 C-33.31045419 24.52567849 -37.516116 21.12690039 -40.875 16.3125 C-42.47276369 11.60797358 -42.74508111 6.94015226 -43 2 C-27.5314766 6.31039881 -27.5314766 6.31039881 -24 12 C-20.93399285 11.65933254 -20.03498854 11.03922958 -17.9375 8.6875 C-14.39573289 5.44715988 -11.13069167 4.36437246 -6.62109375 2.89453125 C-4.27934082 2.0953339 -2.17853467 1.16359381 0 0 Z " fill="#89D7F0" transform="translate(72,37)"/>
<path d="M0 0 C1.05960938 0.62648438 2.11921875 1.25296875 3.2109375 1.8984375 C4.00757813 2.46820313 4.80421875 3.03796875 5.625 3.625 C5.625 4.285 5.625 4.945 5.625 5.625 C4.965 5.625 4.305 5.625 3.625 5.625 C3.295 7.275 2.965 8.925 2.625 10.625 C3.615 10.955 4.605 11.285 5.625 11.625 C4.73296875 11.93953125 3.8409375 12.2540625 2.921875 12.578125 C1.75140625 13.00609375 0.5809375 13.4340625 -0.625 13.875 C-1.78515625 14.29265625 -2.9453125 14.7103125 -4.140625 15.140625 C-7.3469942 16.6121471 -8.99980506 18.08712047 -11.375 20.625 C-13.5 20.625 -13.5 20.625 -15.375 19.625 C-15.59929688 18.98949219 -15.82359375 18.35398437 -16.0546875 17.69921875 C-18.10896213 14.47194116 -20.75457436 14.34631586 -24.375 13.4375 C-31.32436709 11.65031646 -31.32436709 11.65031646 -33.375 10.625 C-31.33530246 3.56450851 -31.33530246 3.56450851 -28.375 1.625 C-24.6875 0.9375 -24.6875 0.9375 -21.375 0.625 C-21.705 2.275 -22.035 3.925 -22.375 5.625 C-18.86494665 3.9869751 -15.91956151 2.59365509 -13.375 -0.375 C-14.365 -0.375 -15.355 -0.375 -16.375 -0.375 C-16.375 -1.035 -16.375 -1.695 -16.375 -2.375 C-9.9620379 -4.34821911 -5.70019425 -3.44826566 0 0 Z " fill="#4AB4D4" transform="translate(62.375,26.375)"/>
<path d="M0 0 C0.99 0 1.98 0 3 0 C3 1.32 3 2.64 3 4 C3.99 4.33 4.98 4.66 6 5 C7.1875 8.0625 7.1875 8.0625 8 11 C8.66 10.01 9.32 9.02 10 8 C10.625 10.25 10.625 10.25 11 13 C10.6390625 13.62261719 10.278125 14.24523438 9.90625 14.88671875 C8.7357588 16.98541455 8.7357588 16.98541455 9.6796875 19.19140625 C10.07414062 19.97386719 10.46859375 20.75632812 10.875 21.5625 C13.35019021 27.13583098 13.41153193 31.98706125 13 38 C12.2575 37.690625 11.515 37.38125 10.75 37.0625 C8.15056452 35.95323577 8.15056452 35.95323577 5.8828125 35.640625 C3.16113616 34.71457745 2.39121568 33.1473672 0.875 30.75 C0.12863281 29.59757812 0.12863281 29.59757812 -0.6328125 28.421875 C-3.81076055 22.79236703 -4.26350315 18.54266387 -4.125 12.1875 C-4.11597656 11.39923828 -4.10695313 10.61097656 -4.09765625 9.79882812 C-4.07422504 7.86575334 -4.03835838 5.9328362 -4 4 C-3.67 4.66 -3.34 5.32 -3 6 C-2.34 5.67 -1.68 5.34 -1 5 C-0.34444881 2.47266765 -0.34444881 2.47266765 0 0 Z " fill="#215868" transform="translate(19,30)"/>
<path d="M0 0 C2.95064148 -0.2208564 5.68368231 -0.28060989 8.625 -0.1875 C9.42679688 -0.17396484 10.22859375 -0.16042969 11.0546875 -0.14648438 C13.03674378 -0.11109051 15.01845551 -0.05728234 17 0 C16.57847656 0.62648438 16.15695313 1.25296875 15.72265625 1.8984375 C15.17480469 2.71570313 14.62695312 3.53296875 14.0625 4.375 C13.51722656 5.18710937 12.97195312 5.99921875 12.41015625 6.8359375 C10.98906121 8.92719184 10.98906121 8.92719184 10 11 C11.12019531 11.23074219 12.24039062 11.46148437 13.39453125 11.69921875 C14.86742743 12.0275714 16.34007113 12.3570581 17.8125 12.6875 C18.55048828 12.83638672 19.28847656 12.98527344 20.04882812 13.13867188 C25.54974762 14.40811484 25.54974762 14.40811484 28.01171875 17.64453125 C28.50091797 18.81048828 28.50091797 18.81048828 29 20 C31.77770112 19.58848872 33.02003481 18.98282731 35.1875 17.125 C38.85306004 14.35546575 42.62445128 13.25832774 47 12 C47 10.68 47 9.36 47 8 C52.94 8.33 58.88 8.66 65 9 C64.67 9.66 64.34 10.32 64 11 C61.2303041 11.72886734 58.87137415 12 56 12 C56.495 15.465 56.495 15.465 57 19 C56.34 17.68 55.68 16.36 55 15 C54.34 15 53.68 15 53 15 C53.0825 16.134375 53.165 17.26875 53.25 18.4375 C53.26161927 24.97914943 50.26061739 31.10029 46 36 C46 35.34 46 34.68 46 34 C45.23816406 34.67095703 45.23816406 34.67095703 44.4609375 35.35546875 C43.03119968 36.61117481 41.59738805 37.86225323 40.16015625 39.109375 C38.86002107 40.24728717 37.57188449 41.39944265 36.30859375 42.578125 C33.87165416 44.79236776 32.45001815 45.95108498 29.125 46.3125 C28.42375 46.209375 27.7225 46.10625 27 46 C27.639375 45.731875 28.27875 45.46375 28.9375 45.1875 C31.33131686 44.11332248 31.33131686 44.11332248 32 41 C32.825 40.62875 33.65 40.2575 34.5 39.875 C40.94640174 36.4215705 46.74175094 31.08470292 49 24 C49.54917552 21.70414122 49.99441164 19.40423912 50.4375 17.0859375 C51 15 51 15 53 12 C51.865625 12.598125 50.73125 13.19625 49.5625 13.8125 C46.50185677 15.36728502 43.54539488 16.48659003 40.25 17.4375 C36.20275911 18.6957096 34.28309442 20.32719593 32 24 C28.98732326 23.66525814 28.0781953 23.09080745 26.0625 20.75 C21.9909458 16.30241054 15.54166156 14.90672104 10 13 C9.01 13.99 8.02 14.98 7 16 C6.71125 14.865625 6.4225 13.73125 6.125 12.5625 C5.75375 11.386875 5.3825 10.21125 5 9 C4.34 8.67 3.68 8.34 3 8 C3 6.68 3 5.36 3 4 C2.01 4.33 1.02 4.66 0 5 C0 6.65 0 8.3 0 10 C-0.99 10 -1.98 10 -3 10 C-2.25 3.375 -2.25 3.375 0 0 Z " fill="#235673" transform="translate(19,26)"/>
<path d="M0 0 C4.95 0 9.9 0 15 0 C15 1.65 15 3.3 15 5 C16.32 5 17.64 5 19 5 C19 3.35 19 1.7 19 0 C20.98 0 22.96 0 25 0 C25 1.98 25 3.96 25 6 C25.99 6 26.98 6 28 6 C28 6.66 28 7.32 28 8 C27.01 8.66 26.02 9.32 25 10 C25.33 11.32 25.66 12.64 26 14 C22.7 14 19.4 14 16 14 C16 12.35 16 10.7 16 9 C15.34 9 14.68 9 14 9 C14 10.32 14 11.64 14 13 C10 13 6 13 2 13 C2.33 11.68 2.66 10.36 3 9 C2.01 8.67 1.02 8.34 0 8 C0 5.36 0 2.72 0 0 Z " fill="#8CA9B7" transform="translate(36,78)"/>
<path d="M0 0 C0.66 0.33 1.32 0.66 2 1 C2.4921875 2.85546875 2.4921875 2.85546875 2.875 5.1875 C4.38788052 12.53078927 8.24472993 16.55274585 14 21 C15.32 20.34 16.64 19.68 18 19 C18 15.48283697 17.17554415 14.62878252 15 12 C15.5775 12.309375 16.155 12.61875 16.75 12.9375 C19.7646204 14.36547957 19.7646204 14.36547957 23 15 C24.77190909 13.64555699 24.77190909 13.64555699 26 12 C26.66 12.33 27.32 12.66 28 13 C27.21753906 13.69867188 26.43507813 14.39734375 25.62890625 15.1171875 C24.60662828 16.0362998 23.58450065 16.95557934 22.5625 17.875 C22.04623047 18.33519531 21.52996094 18.79539062 20.99804688 19.26953125 C18.10512063 21.81793085 18.10512063 21.81793085 16 25 C16.66 25.33 17.32 25.66 18 26 C17.34 26.66 16.68 27.32 16 28 C15.9175 27.38125 15.835 26.7625 15.75 26.125 C15.21402157 23.85609195 15.21402157 23.85609195 13.1875 23 C12.465625 22.67 11.74375 22.34 11 22 C9.62913085 20.70529025 8.28659163 19.37849103 7 18 C7 18.66 7 19.32 7 20 C7.99 20.763125 8.98 21.52625 10 22.3125 C12.95212487 24.64093652 12.95212487 24.64093652 13.375 27.8125 C13.25125 28.534375 13.1275 29.25625 13 30 C13.66 29.01 14.32 28.02 15 27 C15.33 28.32 15.66 29.64 16 31 C19.63 31 23.26 31 27 31 C27.33 29.68 27.66 28.36 28 27 C29.33984375 25.296875 29.33984375 25.296875 30.9375 23.75 C31.46214844 23.22921875 31.98679688 22.7084375 32.52734375 22.171875 C34 21 34 21 36 21 C34.5834979 24.4232134 32.93172851 25.82484659 30 28 C29.505 29.485 29.505 29.485 29 31 C29.66 31.33 30.32 31.66 31 32 C22.69078022 34.3961471 13.86204707 33.43964559 6 30 C2.86611657 28.16723782 -0.09147822 26.17085322 -3 24 C-1.125 23.375 -1.125 23.375 1 23 C1.66 23.66 2.32 24.32 3 25 C3.28416602 17.28647937 3.28416602 17.28647937 1 10 C1 8.68 1 7.36 1 6 C0.34 5.67 -0.32 5.34 -1 5 C-0.67 3.35 -0.34 1.7 0 0 Z " fill="#235770" transform="translate(28,42)"/>
<path d="M0 0 C0.99 0.33 1.98 0.66 3 1 C5.63804589 0.60602665 5.63804589 0.60602665 8 0 C8.33 1.32 8.66 2.64 9 4 C8.34 4 7.68 4 7 4 C6.67 5.98 6.34 7.96 6 10 C4.02 10.66 2.04 11.32 0 12 C2.62113708 12 4.50935112 11.68707555 7 11 C6.375 13.4375 6.375 13.4375 5 16 C1.875 16.8125 1.875 16.8125 -1 17 C-1.33 16.01 -1.66 15.02 -2 14 C-3.21297649 16.2806707 -3.21297649 16.2806707 -4 19 C-3.13350534 20.98330173 -3.13350534 20.98330173 -2 23 C-1.875 26.25 -1.875 26.25 -2 29 C-2.99 29.33 -3.98 29.66 -5 30 C-5.33 29.67 -5.66 29.34 -6 29 C-6.33 29.66 -6.66 30.32 -7 31 C-7.66 31 -8.32 31 -9 31 C-9.40521679 24.61783552 -8.72537809 20.77536411 -5.88671875 15.078125 C-4.71175496 12.32446536 -4.78382392 9.95440638 -5 7 C-4.67 6.34 -4.34 5.68 -4 5 C-3.34 5 -2.68 5 -2 5 C-2 4.01 -2 3.02 -2 2 C-1.34 1.34 -0.68 0.68 0 0 Z " fill="#538F5E" transform="translate(76,36)"/>
<path d="M0 0 C0 3.59971505 -0.64715155 4.36791239 -3 7 C-5.12109375 8.51953125 -5.12109375 8.51953125 -7.4375 9.8125 C-8.19933594 10.25207031 -8.96117187 10.69164062 -9.74609375 11.14453125 C-12 12 -12 12 -14.05078125 11.453125 C-14.69402344 11.30359375 -15.33726563 11.1540625 -16 11 C-17.99996325 12.17865648 -17.99996325 12.17865648 -19.75 13.9375 C-20.36359375 14.50339844 -20.9771875 15.06929687 -21.609375 15.65234375 C-22.06828125 16.09707031 -22.5271875 16.54179688 -23 17 C-23.43570313 16.57847656 -23.87140625 16.15695313 -24.3203125 15.72265625 C-28.22441143 12.13122325 -30.61158972 10.57323514 -36 10 C-39.3125 8.75 -39.3125 8.75 -42 7 C-42.66796875 4.390625 -42.66796875 4.390625 -43 2 C-27.5314766 6.31039881 -27.5314766 6.31039881 -24 12 C-20.93399285 11.65933254 -20.03498854 11.03922958 -17.9375 8.6875 C-14.39573289 5.44715988 -11.13069167 4.36437246 -6.62109375 2.89453125 C-4.27934082 2.0953339 -2.17853467 1.16359381 0 0 Z " fill="#F0F5F6" transform="translate(72,37)"/>
<path d="M0 0 C5.91812267 1.3315776 9.92926746 4.65421796 14 9 C15.109375 11.0390625 15.109375 11.0390625 16 13 C16.99 14.485 16.99 14.485 18 16 C16.68 17.32 15.36 18.64 14 20 C8.56994854 17.46995404 4.32180527 14.04666622 1.0625 9 C-0.07183343 5.79717619 -0.24084478 3.37182689 0 0 Z " fill="#79CDE9" transform="translate(30,44)"/>
<path d="M0 0 C-0.33 2.31 -0.66 4.62 -1 7 C3.455 7.99 3.455 7.99 8 9 C7.67 11.31 7.34 13.62 7 16 C6.34 16 5.68 16 5 16 C4.67 15.34 4.34 14.68 4 14 C1.71243025 13.23362075 -0.60662341 12.55985588 -2.9375 11.9375 C-9.85430464 10.07284768 -9.85430464 10.07284768 -12 9 C-10.04225352 2.22318527 -10.04225352 2.22318527 -7 0 C-3.98519175 -1.13055309 -3.16829698 -1.05609899 0 0 Z " fill="#55B7C9" transform="translate(41,28)"/>
<path d="M0 0 C5.94 0.33 11.88 0.66 18 1 C17.67 1.66 17.34 2.32 17 3 C14.2303041 3.72886734 11.87137415 4 9 4 C9.33 6.31 9.66 8.62 10 11 C9.34 9.68 8.68 8.36 8 7 C7.34 7 6.68 7 6 7 C6.12375 8.7015625 6.12375 8.7015625 6.25 10.4375 C6.26161927 16.97914943 3.26061739 23.10029 -1 28 C-1 27.34 -1 26.68 -1 26 C-1.50789063 26.44730469 -2.01578125 26.89460938 -2.5390625 27.35546875 C-3.96880032 28.61117481 -5.40261195 29.86225323 -6.83984375 31.109375 C-8.13997893 32.24728717 -9.42811551 33.39944265 -10.69140625 34.578125 C-13.12834584 36.79236776 -14.54998185 37.95108498 -17.875 38.3125 C-18.57625 38.209375 -19.2775 38.10625 -20 38 C-19.360625 37.731875 -18.72125 37.46375 -18.0625 37.1875 C-15.66868314 36.11332248 -15.66868314 36.11332248 -15 33 C-14.175 32.62875 -13.35 32.2575 -12.5 31.875 C-6.05359826 28.4215705 -0.25824906 23.08470292 2 16 C2.54917552 13.70414122 2.99441164 11.40423912 3.4375 9.0859375 C4 7 4 7 6 4 C5.01 4 4.02 4 3 4 C3 3.34 3 2.68 3 2 C2.01 2 1.02 2 0 2 C0 1.34 0 0.68 0 0 Z " fill="#1B5774" transform="translate(66,34)"/>
<path d="M0 0 C0.66 0.33 1.32 0.66 2 1 C2.4921875 2.85546875 2.4921875 2.85546875 2.875 5.1875 C4.38788052 12.53078927 8.24472993 16.55274585 14 21 C15.32 20.34 16.64 19.68 18 19 C18 15.48283697 17.17554415 14.62878252 15 12 C15.5775 12.309375 16.155 12.61875 16.75 12.9375 C19.7646204 14.36547957 19.7646204 14.36547957 23 15 C24.77190909 13.64555699 24.77190909 13.64555699 26 12 C26.66 12.33 27.32 12.66 28 13 C27.21753906 13.69867188 26.43507813 14.39734375 25.62890625 15.1171875 C24.60662828 16.0362998 23.58450065 16.95557934 22.5625 17.875 C22.04623047 18.33519531 21.52996094 18.79539062 20.99804688 19.26953125 C18.10512063 21.81793085 18.10512063 21.81793085 16 25 C16.66 25.33 17.32 25.66 18 26 C17.34 26.66 16.68 27.32 16 28 C15.9175 27.38125 15.835 26.7625 15.75 26.125 C15.21402157 23.85609195 15.21402157 23.85609195 13.1875 23 C12.465625 22.67 11.74375 22.34 11 22 C9.62913085 20.70529025 8.28659163 19.37849103 7 18 C7 18.66 7 19.32 7 20 C8.95927063 21.7143618 10.95880212 23.38405168 13 25 C12.01 25.33 11.02 25.66 10 26 C9.54625 25.525625 9.0925 25.05125 8.625 24.5625 C7.06741796 22.90972192 7.06741796 22.90972192 5 22 C4.67 22.99 4.34 23.98 4 25 C3.86722656 24.13117188 3.73445313 23.26234375 3.59765625 22.3671875 C3.33275391 20.63855469 3.33275391 20.63855469 3.0625 18.875 C2.88847656 17.73804687 2.71445312 16.60109375 2.53515625 15.4296875 C2.35855469 14.29789063 2.18195312 13.16609375 2 12 C1.78150391 10.33324219 1.78150391 10.33324219 1.55859375 8.6328125 C1.37425781 7.76398437 1.18992187 6.89515625 1 6 C0.34 5.67 -0.32 5.34 -1 5 C-0.67 3.35 -0.34 1.7 0 0 Z " fill="#1F5A79" transform="translate(28,42)"/>
<path d="M0 0 C4.93681626 0.29920099 9.19999466 2.97319674 13 6 C13 6.66 13 7.32 13 8 C12.34 8 11.68 8 11 8 C10.67 9.65 10.34 11.3 10 13 C10.99 13.33 11.98 13.66 13 14 C11.02 14.33 9.04 14.66 7 15 C6.608125 14.21625 6.21625 13.4325 5.8125 12.625 C3.75725331 9.64843582 2.40320742 9.01176437 -1 8 C-1.04241723 5.66705225 -1.04092937 3.33297433 -1 1 C-0.67 0.67 -0.34 0.34 0 0 Z " fill="#74BB54" transform="translate(55,24)"/>
<path d="M0 0 C0.66 0 1.32 0 2 0 C2 0.66 2 1.32 2 2 C3.98 1.67 5.96 1.34 8 1 C8 2.65 8 4.3 8 6 C5.14554531 6.9514849 3.78275636 7.03133099 0.875 6.875 C-4.18165157 6.79196795 -8.33925466 8.14892384 -13 10 C-15 7 -15 7 -15 4 C-14.01 4 -13.02 4 -12 4 C-12 3.34 -12 2.68 -12 2 C-11.34 2 -10.68 2 -10 2 C-10 2.66 -10 3.32 -10 4 C-8.35 3.67 -6.7 3.34 -5 3 C-5 2.34 -5 1.68 -5 1 C-3.35 1.33 -1.7 1.66 0 2 C0 1.34 0 0.68 0 0 Z " fill="#4DACCE" transform="translate(49,13)"/>
<path d="M0 0 C2.91248056 1.64746375 4.87246028 3.29243049 6.5625 6.25 C4.28381414 5.11065707 2.1081311 3.96872402 -0.0625 2.625 C-4.59340067 0.77907751 -8.61010298 0.99241162 -13.4375 1.25 C-13.4375 1.91 -13.4375 2.57 -13.4375 3.25 C-9.9725 2.755 -9.9725 2.755 -6.4375 2.25 C-7.4275 2.91 -8.4175 3.57 -9.4375 4.25 C-10.0046875 4.67539062 -10.571875 5.10078125 -11.15625 5.5390625 C-12.03796875 6.20035156 -12.03796875 6.20035156 -12.9375 6.875 C-13.5253125 7.32101563 -14.113125 7.76703125 -14.71875 8.2265625 C-16.4375 9.25 -16.4375 9.25 -19.4375 9.25 C-20.77938034 3.88247863 -20.77938034 3.88247863 -19.1875 0.9375 C-14.35170248 -3.72559047 -5.65038398 -2.66823688 0 0 Z " fill="#C0D5D5" transform="translate(59.4375,22.75)"/>
<path d="M0 0 C0.99 0 1.98 0 3 0 C3 1.32 3 2.64 3 4 C3.99 4.33 4.98 4.66 6 5 C6.33 7.31 6.66 9.62 7 12 C6.34 12 5.68 12 5 12 C5 12.99 5 13.98 5 15 C4.01 15 3.02 15 2 15 C2.99 16.485 2.99 16.485 4 18 C-0.875 16.125 -0.875 16.125 -2 15 C-2.04092937 12.66702567 -2.04241723 10.33294775 -2 8 C-2.66 7.67 -3.32 7.34 -4 7 C-3.67 6.01 -3.34 5.02 -3 4 C-3 4.66 -3 5.32 -3 6 C-2.34 5.67 -1.68 5.34 -1 5 C-0.34444881 2.47266765 -0.34444881 2.47266765 0 0 Z " fill="#498169" transform="translate(19,30)"/>
<path d="M0 0 C2 2 2 2 2.375 5.4375 C2.23385179 11.36572478 0.37291696 18.3552453 -3.63671875 22.82421875 C-4.08660156 23.21222656 -4.53648438 23.60023437 -5 24 C-5.99 23.67 -6.98 23.34 -8 23 C-8.33 20.03 -8.66 17.06 -9 14 C-5.535 13.505 -5.535 13.505 -2 13 C-2 12.01 -2 11.02 -2 10 C-3.65 10.66 -5.3 11.32 -7 12 C-7 11.34 -7 10.68 -7 10 C-5.02 9.34 -3.04 8.68 -1 8 C-1.020625 6.865625 -1.04125 5.73125 -1.0625 4.5625 C-1 1 -1 1 0 0 Z " fill="#295F66" transform="translate(83,38)"/>
<path d="M0 0 C0.33 0 0.66 0 1 0 C1.08690514 5.36328841 0.44515738 9.05825757 -3.125 13.1875 C-4.38927178 14.48558975 -5.68148123 15.75704851 -7 17 C-7.63164063 17.60457031 -8.26328125 18.20914063 -8.9140625 18.83203125 C-13.50175644 23 -13.50175644 23 -17 23 C-17 23.99 -17 24.98 -17 26 C-18.32 25.67 -19.64 25.34 -21 25 C-18.90625 22.90625 -18.90625 22.90625 -16.8125 20.8125 C-15.99007812 19.98878906 -15.16765625 19.16507813 -14.3203125 18.31640625 C-12.61897518 16.61793313 -10.90639739 14.93069967 -9.1875 13.25 C-5.20768821 9.1564793 -2.4123811 5.18661936 0 0 Z " fill="#58B5D7" transform="translate(68,44)"/>
<path d="M0 0 C2.97 0 5.94 0 9 0 C7 4 7 4 6 5 C7.32 5.33 8.64 5.66 10 6 C10.33 4.35 10.66 2.7 11 1 C11.99 0.67 12.98 0.34 14 0 C15.4606285 2.64738916 16 3.89448334 16 7 C14.35 6.67 12.7 6.34 11 6 C11 6.66 11 7.32 11 8 C7.37 8 3.74 8 0 8 C0 5.36 0 2.72 0 0 Z " fill="#2D5D78" transform="translate(65,78)"/>
<path d="M0 0 C1.15242188 0.01804687 2.30484375 0.03609375 3.4921875 0.0546875 C4.36101563 0.07789063 5.22984375 0.10109375 6.125 0.125 C6.455 1.445 6.785 2.765 7.125 4.125 C5.145 4.455 3.165 4.785 1.125 5.125 C1.125 4.465 1.125 3.805 1.125 3.125 C0.465 3.125 -0.195 3.125 -0.875 3.125 C-0.875 3.785 -0.875 4.445 -0.875 5.125 C-2.525 4.795 -4.175 4.465 -5.875 4.125 C-5.875 4.785 -5.875 5.445 -5.875 6.125 C-7.525 6.455 -9.175 6.785 -10.875 7.125 C-10.875 6.465 -10.875 5.805 -10.875 5.125 C-12.525 4.795 -14.175 4.465 -15.875 4.125 C-10.67412647 0.65775098 -6.19502886 -0.12642916 0 0 Z " fill="#285F7C" transform="translate(49.875,9.875)"/>
<path d="M0 0 C3.99500618 1.3697164 6.80009492 3.25722422 10 6 C11.98 4.02 13.96 2.04 16 0 C16.99 0.33 17.98 0.66 19 1 C17.24870328 5.29863741 14.3397917 8.84478903 10.1328125 10.921875 C8 11 8 11 5.640625 9.12890625 C4.85171875 8.28199219 4.0628125 7.43507813 3.25 6.5625 C2.45078125 5.71816406 1.6515625 4.87382813 0.828125 4.00390625 C0.22484375 3.34261719 -0.3784375 2.68132813 -1 2 C-0.67 1.34 -0.34 0.68 0 0 Z " fill="#C8E6EE" transform="translate(40,47)"/>
<path d="M0 0 C0.68835937 0.59748047 0.68835937 0.59748047 1.390625 1.20703125 C5.29896971 4.5823124 5.29896971 4.5823124 9.375 7.75 C11 9 11 9 12 11 C14.20945257 12.15073311 14.20945257 12.15073311 17 12 C19.30936209 10.24796792 21.1826238 8.61198408 23.1875 6.5625 C28.79065164 1 28.79065164 1 31 1 C29.63909293 5.08272121 27.08406908 6.61725803 23.8125 9.28125 C21.74921094 10.96771124 21.74921094 10.96771124 21 14 C9 14 9 14 6 13 C6.185625 11.9171875 6.185625 11.9171875 6.375 10.8125 C5.81982188 6.6486641 3.18708991 5.52311285 0 3 C0 2.01 0 1.02 0 0 Z " fill="#3B767F" transform="translate(34,59)"/>
<path d="M0 0 C0.66 0.33 1.32 0.66 2 1 C3.04976964 4.14930893 3.10131595 6.38814456 3.0625 9.6875 C3.05347656 10.68136719 3.04445313 11.67523438 3.03515625 12.69921875 C3.02355469 13.45847656 3.01195312 14.21773437 3 15 C-2.875 12.125 -2.875 12.125 -4 11 C-3.52742616 3.67510549 -3.52742616 3.67510549 -1.4375 1 C-0.963125 0.67 -0.48875 0.34 0 0 Z " fill="#82B96F" transform="translate(29,53)"/>
<path d="M0 0 C3 1 3 1 4.1875 2.6875 C5.19313465 5.54969093 5.13689641 7.98827908 5 11 C4.01 11.33 3.02 11.66 2 12 C1.67 11.67 1.34 11.34 1 11 C0.67 11.66 0.34 12.32 0 13 C-0.66 13 -1.32 13 -2 13 C-2.05447047 11.58376784 -2.09300508 10.16691809 -2.125 8.75 C-2.14820312 7.96109375 -2.17140625 7.1721875 -2.1953125 6.359375 C-1.9828378 3.79268059 -1.28654105 2.2083933 0 0 Z " fill="#6EAE4E" transform="translate(69,54)"/>
<path d="M0 0 C0.99 0.33 1.98 0.66 3 1 C5.63804589 0.60602665 5.63804589 0.60602665 8 0 C8.33 1.32 8.66 2.64 9 4 C8.34 3.67 7.68 3.34 7 3 C6.21625 3.804375 5.4325 4.60875 4.625 5.4375 C2 8 2 8 0 9 C-0.66 6.69 -1.32 4.38 -2 2 C-1.34 1.34 -0.68 0.68 0 0 Z " fill="#63957E" transform="translate(76,36)"/>
<path d="M0 0 C0.33 0.99 0.66 1.98 1 3 C3.00016466 4.20882096 3.00016466 4.20882096 5 5 C4.21625 5.12375 3.4325 5.2475 2.625 5.375 C-0.14057822 5.79117993 -0.14057822 5.79117993 -2 8 C-2.99 7.67 -3.98 7.34 -5 7 C-5.33 6.34 -5.66 5.68 -6 5 C-8.31 5.33 -10.62 5.66 -13 6 C-13 5.34 -13 4.68 -13 4 C-11.906875 3.71125 -10.81375 3.4225 -9.6875 3.125 C-5.98501572 1.99542853 -3.83848474 0 0 0 Z " fill="#8AD3E5" transform="translate(54,29)"/>
<path d="M0 0 C0.66 0 1.32 0 2 0 C2 1.98 2 3.96 2 6 C2.99 6 3.98 6 5 6 C5 6.66 5 7.32 5 8 C4.01 8.66 3.02 9.32 2 10 C2.33 11.32 2.66 12.64 3 14 C0.69 13.67 -1.62 13.34 -4 13 C-2.125 8.125 -2.125 8.125 -1 7 C-0.63239269 4.67182036 -0.29758419 2.3381615 0 0 Z " fill="#799AAA" transform="translate(59,78)"/>
<path d="M0 0 C5.94 0.33 11.88 0.66 18 1 C17.67 1.66 17.34 2.32 17 3 C14.2303041 3.72886734 11.87137415 4 9 4 C9.33 6.31 9.66 8.62 10 11 C9.34 9.68 8.68 8.36 8 7 C7.01 7.33 6.02 7.66 5 8 C5.33 6.68 5.66 5.36 6 4 C5.01 4 4.02 4 3 4 C3 3.34 3 2.68 3 2 C2.01 2 1.02 2 0 2 C0 1.34 0 0.68 0 0 Z " fill="#134968" transform="translate(66,34)"/>
<path d="M0 0 C3.36389668 0.24917753 4.14041544 1.15841742 6.4375 3.75 C6.85257813 4.28367187 7.26765625 4.81734375 7.6953125 5.3671875 C9.61806745 7.77350957 11.79224355 9.8553223 14 12 C8.80327405 12 7.46417465 10.26579727 3.7734375 6.890625 C1.76652358 4.75109562 0.69283083 2.85792716 0 0 Z " fill="#4AB0D5" transform="translate(31,51)"/>
<path d="M0 0 C0.66 0.33 1.32 0.66 2 1 C2.99 1 3.98 1 5 1 C7.33333333 1 9.66666667 1 12 1 C11.01 1.66 10.02 2.32 9 3 C8.4328125 3.42539062 7.865625 3.85078125 7.28125 4.2890625 C6.39953125 4.95035156 6.39953125 4.95035156 5.5 5.625 C4.9121875 6.07101563 4.324375 6.51703125 3.71875 6.9765625 C2 8 2 8 -1 8 C-1.625 5.125 -1.625 5.125 -2 2 C-1.34 1.34 -0.68 0.68 0 0 Z " fill="#5EBDD4" transform="translate(41,24)"/>
<path d="M0 0 C-0.0625 2.8125 -0.0625 2.8125 -1 6 C-4.375 7.8125 -4.375 7.8125 -8 9 C-8.99 9.33 -9.98 9.66 -11 10 C-9.92598892 7.08482708 -9.22189824 5.22189824 -7 3 C-7.99 3 -8.98 3 -10 3 C-10 2.34 -10 1.68 -10 1 C-6.61981469 -0.04005702 -3.5219721 -0.08004482 0 0 Z " fill="#50B7D8" transform="translate(56,23)"/>
<path d="M0 0 C0.33 0 0.66 0 1 0 C0.83560987 6.72505081 -0.21055351 10.21055351 -5 15 C-5.99 14.34 -6.98 13.68 -8 13 C-7.236875 11.96875 -6.47375 10.9375 -5.6875 9.875 C-3.42984469 6.72582739 -1.63254992 3.52287088 0 0 Z " fill="#49B4DA" transform="translate(68,44)"/>
<path d="M0 0 C0.99 0.33 1.98 0.66 3 1 C2.67 3.97 2.34 6.94 2 10 C-0.31 9.67 -2.62 9.34 -5 9 C-3.84607545 5.53822635 -2.06206835 2.99332502 0 0 Z " fill="#76BD5C" transform="translate(38,27)"/>
<path d="M0 0 C0.33 0.66 0.66 1.32 1 2 C-0.423125 2.928125 -0.423125 2.928125 -1.875 3.875 C-4.94445109 5.81970969 -4.94445109 5.81970969 -7 8 C-9.0625 7.75 -9.0625 7.75 -11 7 C-11.33 6.34 -11.66 5.68 -12 5 C-11.34 5 -10.68 5 -10 5 C-10 4.34 -10 3.68 -10 3 C-6.58168085 0.4606772 -4.24223102 -0.3636198 0 0 Z " fill="#3EA0C3" transform="translate(58,39)"/>
<path d="M0 0 C4.34464536 0.60825035 8.67551867 1.26167392 13 2 C12.34 3.65 11.68 5.3 11 7 C5.95904225 6.55520961 3.58884285 4.33845847 0 1 C0 0.67 0 0.34 0 0 Z " fill="#429BBC" transform="translate(62,22)"/>
<path d="M0 0 C0.99 0.33 1.98 0.66 3 1 C4.1875 3.5625 4.1875 3.5625 5 6 C5.66 5.34 6.32 4.68 7 4 C7.33 5.65 7.66 7.3 8 9 C8.99 9.33 9.98 9.66 11 10 C10.01 10.33 9.02 10.66 8 11 C6.33289654 12.49985609 6.33289654 12.49985609 5 14 C4.71125 12.865625 4.4225 11.73125 4.125 10.5625 C3.75375 9.386875 3.3825 8.21125 3 7 C2.34 6.67 1.68 6.34 1 6 C0.375 2.9375 0.375 2.9375 0 0 Z " fill="#275B6F" transform="translate(21,28)"/>
<path d="M0 0 C1.98 0.99 1.98 0.99 4 2 C4.33 1.34 4.66 0.68 5 0 C5.99 0 6.98 0 8 0 C8 2.31 8 4.62 8 7 C7.236875 6.814375 6.47375 6.62875 5.6875 6.4375 C2.91032625 5.77180827 2.91032625 5.77180827 0 7 C0 4.69 0 2.38 0 0 Z " fill="#285A76" transform="translate(19,78)"/>
<path d="M0 0 C2.475 0.99 2.475 0.99 5 2 C4.95875 2.7425 4.9175 3.485 4.875 4.25 C5.00398134 7.08758952 5.57051222 8.58773938 7 11 C4 11 4 11 2.578125 9.609375 C2.13984375 8.99578125 1.7015625 8.3821875 1.25 7.75 C0.80140625 7.14671875 0.3528125 6.5434375 -0.109375 5.921875 C-1.21943692 3.52647822 -0.88257281 2.43245678 0 0 Z " fill="#497D6F" transform="translate(19,54)"/>
<path d="M0 0 C0.66 0 1.32 0 2 0 C2 0.66 2 1.32 2 2 C3.98 1.67 5.96 1.34 8 1 C8 2.65 8 4.3 8 6 C7.34 5.34 6.68 4.68 6 4 C-0.76755617 3.11501189 -7.4333682 4.43518561 -14 6 C-14 5.34 -14 4.68 -14 4 C-13.34 4 -12.68 4 -12 4 C-12 3.34 -12 2.68 -12 2 C-11.34 2 -10.68 2 -10 2 C-10 2.66 -10 3.32 -10 4 C-8.35 3.67 -6.7 3.34 -5 3 C-5 2.34 -5 1.68 -5 1 C-3.35 1.33 -1.7 1.66 0 2 C0 1.34 0 0.68 0 0 Z " fill="#4C8EA8" transform="translate(49,13)"/>
<path d="M0 0 C-1.36090707 4.08272121 -3.91593092 5.61725803 -7.1875 8.28125 C-9.25078906 9.96771124 -9.25078906 9.96771124 -10 13 C-13.63 13 -17.26 13 -21 13 C-20.67 12.34 -20.34 11.68 -20 11 C-19.13890625 11.1134375 -18.2778125 11.226875 -17.390625 11.34375 C-12.86297446 10.88472552 -10.79428084 8.61312136 -7.75 5.5 C-2.20945946 0 -2.20945946 0 0 0 Z " fill="#3085A7" transform="translate(65,60)"/>
<path d="M0 0 C2.31 0.33 4.62 0.66 7 1 C6.67 3.31 6.34 5.62 6 8 C4 8 4 8 1.375 5.5 C0.59125 4.675 -0.1925 3.85 -1 3 C-0.67 2.01 -0.34 1.02 0 0 Z " fill="#74BC55" transform="translate(42,36)"/>
<path d="M0 0 C4.95 0 9.9 0 15 0 C15.33 0.66 15.66 1.32 16 2 C10.555 2.495 10.555 2.495 5 3 C5.33 3.66 5.66 4.32 6 5 C3.5625 4.1875 3.5625 4.1875 1 3 C0.67 2.01 0.34 1.02 0 0 Z " fill="#144A69" transform="translate(58,20)"/>
<path d="M0 0 C1.67542976 0.28604898 3.34385343 0.61781233 5 1 C5 2.65 5 4.3 5 6 C3.34385343 6.38218767 1.67542976 6.71395102 0 7 C-1 6 -1 6 -1.125 3.5 C-1 1 -1 1 0 0 Z " fill="#1C506D" transform="translate(29,78)"/>
<path d="M0 0 C0.99 0 1.98 0 3 0 C3 0.66 3 1.32 3 2 C3.66 2 4.32 2 5 2 C4.34 3.65 3.68 5.3 3 7 C5.64 7 8.28 7 11 7 C11 7.33 11 7.66 11 8 C7.37 8 3.74 8 0 8 C0 5.36 0 2.72 0 0 Z " fill="#8DAAB7" transform="translate(65,78)"/>
<path d="M0 0 C2 2 2 2 2.25 5.875 C2.18064077 9.05396475 1.80254921 11.29617618 0 14 C-0.66 12.68 -1.32 11.36 -2 10 C-3.65 10.66 -5.3 11.32 -7 12 C-7 11.34 -7 10.68 -7 10 C-5.02 9.34 -3.04 8.68 -1 8 C-1.020625 6.865625 -1.04125 5.73125 -1.0625 4.5625 C-1 1 -1 1 0 0 Z " fill="#23596E" transform="translate(83,38)"/>
<path d="M0 0 C1.65 0 3.3 0 5 0 C5 2.31 5 4.62 5 7 C3.35 7 1.7 7 0 7 C0 4.69 0 2.38 0 0 Z " fill="#33627D" transform="translate(36,78)"/>
<path d="M0 0 C0.8723412 2.99480917 1.10829766 5.63575911 1.0625 8.75 C1.05347656 9.54921875 1.04445313 10.3484375 1.03515625 11.171875 C1.01775391 12.07679687 1.01775391 12.07679687 1 13 C1.99 13 2.98 13 4 13 C3.34 14.32 2.68 15.64 2 17 C1.34 17 0.68 17 0 17 C-0.48828125 15.01432292 -0.9765625 13.02864583 -1.46484375 11.04296875 C-1.91010705 9.34316798 -2.44433985 7.66698046 -3 6 C-2.34 6 -1.68 6 -1 6 C-0.67 4.02 -0.34 2.04 0 0 Z " fill="#154B67" transform="translate(74,48)"/>
<path d="M0 0 C0.625 2.375 0.625 2.375 1 5 C0.34 5.66 -0.32 6.32 -1 7 C-1.33 6.34 -1.66 5.68 -2 5 C-2.66 5.66 -3.32 6.32 -4 7 C-4.99 5.02 -5.98 3.04 -7 1 C-4 0 -4 0 0 0 Z " fill="#4E847E" transform="translate(30,28)"/>
<path d="M0 0 C0.66 0.33 1.32 0.66 2 1 C0.75323147 2.27400377 -0.4975648 3.54406654 -1.75 4.8125 C-2.44609375 5.52019531 -3.1421875 6.22789063 -3.859375 6.95703125 C-9.07749906 11.93710221 -9.07749906 11.93710221 -12.75 12.1875 C-13.4925 12.125625 -14.235 12.06375 -15 12 C-14.0409375 11.5978125 -14.0409375 11.5978125 -13.0625 11.1875 C-10.66868314 10.11332248 -10.66868314 10.11332248 -10 7 C-8.00892752 5.98234073 -6.00781177 4.98422146 -4 4 C-1.68581709 1.93832739 -1.68581709 1.93832739 0 0 Z " fill="#154E6F" transform="translate(61,60)"/>
<path d="M0 0 C1.65 0 3.3 0 5 0 C5.66 1.65 6.32 3.3 7 5 C6.01 5 5.02 5 4 5 C4.99 6.485 4.99 6.485 6 8 C1.125 6.125 1.125 6.125 0 5 C-0.04063832 3.33382885 -0.042721 1.66611905 0 0 Z " fill="#94C37F" transform="translate(17,40)"/>
<path d="M0 0 C2.95409701 1.37154504 5.44008376 2.98863724 8 5 C8.78375 4.175 9.5675 3.35 10.375 2.5 C13 0 13 0 15 0 C15 0.66 15 1.32 15 2 C13.25 3.5078125 13.25 3.5078125 11 5.125 C10.2575 5.66382813 9.515 6.20265625 8.75 6.7578125 C7.88375 7.37269531 7.88375 7.37269531 7 8 C5.8274869 7.04882866 4.66212985 6.08882991 3.5 5.125 C2.8503125 4.59132813 2.200625 4.05765625 1.53125 3.5078125 C1.0259375 3.01023438 0.520625 2.51265625 0 2 C0 1.34 0 0.68 0 0 Z " fill="#45728A" transform="translate(42,48)"/>
<path d="M0 0 C4.29 0.99 8.58 1.98 13 3 C13 3.99 13 4.98 13 6 C8.16371695 5.00956295 3.52381127 4.04301154 -1 2 C-0.67 1.34 -0.34 0.68 0 0 Z " fill="#316D89" transform="translate(32,38)"/>
<path d="M0 0 C-1.4165021 3.4232134 -3.06827149 4.82484659 -6 7 C-6.33 7.99 -6.66 8.98 -7 10 C-6.34 10.33 -5.68 10.66 -5 11 C-7.31 11 -9.62 11 -12 11 C-11.01 10.67 -10.02 10.34 -9 10 C-8.64050244 8.67348185 -8.31028876 7.33888378 -8 6 C-6.66015625 4.296875 -6.66015625 4.296875 -5.0625 2.75 C-4.53785156 2.22921875 -4.01320313 1.7084375 -3.47265625 1.171875 C-2 0 -2 0 0 0 Z " fill="#1B5272" transform="translate(64,63)"/>
<path d="M0 0 C0 1.65 0 3.3 0 5 C-3 6 -6 7 -9 8 C-7.47364599 4.11473526 -4.49771687 0 0 0 Z " fill="#76A974" transform="translate(66,64)"/>
<path d="M0 0 C0 3.63 0 7.26 0 11 C-0.66 10.67 -1.32 10.34 -2 10 C-2 9.34 -2 8.68 -2 8 C-2.66 8 -3.32 8 -4 8 C-4 5.69 -4 3.38 -4 1 C-1 0 -1 0 0 0 Z " fill="#60A052" transform="translate(32,57)"/>
<path d="M0 0 C0.66 0.33 1.32 0.66 2 1 C-1.63 4.63 -5.26 8.26 -9 12 C-9.99 11.67 -10.98 11.34 -12 11 C-8.04 7.37 -4.08 3.74 0 0 Z " fill="#D6E8EC" transform="translate(56,54)"/>
<path d="M0 0 C0.66 0.33 1.32 0.66 2 1 C1.67 1.99 1.34 2.98 1 4 C-0.65 4 -2.3 4 -4 4 C-4.33 3.34 -4.66 2.68 -5 2 C-7.01669827 0.86649466 -7.01669827 0.86649466 -9 0 C-5.49142603 -1.16952466 -3.57280503 -0.76017128 0 0 Z " fill="#1B4F6C" transform="translate(62,12)"/>
<path d="M0 0 C-1.12732409 3.38197228 -2.14182373 4.24057814 -4.8125 6.5 C-5.49957031 7.0878125 -6.18664063 7.675625 -6.89453125 8.28125 C-8.89158044 9.91149424 -10.9250562 11.47060322 -13 13 C-13.66 12.34 -14.32 11.68 -15 11 C-14.34 10.67 -13.68 10.34 -13 10 C-9.41938291 7.61292194 -6.71166625 4.76668216 -3.76953125 1.64453125 C-2 0 -2 0 0 0 Z " fill="#61B5D1" transform="translate(59,55)"/>
<path d="M0 0 C0.90105469 0.01804687 1.80210938 0.03609375 2.73046875 0.0546875 C3.41753906 0.07789063 4.10460938 0.10109375 4.8125 0.125 C5.1425 1.445 5.4725 2.765 5.8125 4.125 C4.8225 3.795 3.8325 3.465 2.8125 3.125 C0.92037263 2.90320215 -0.97634472 2.71885985 -2.875 2.5625 C-3.86886719 2.47871094 -4.86273438 2.39492188 -5.88671875 2.30859375 C-7.02560547 2.21771484 -7.02560547 2.21771484 -8.1875 2.125 C-4.87379 -0.08414 -3.8428979 -0.09981553 0 0 Z " fill="#46A6C8" transform="translate(50.1875,15.875)"/>
<path d="M0 0 C1.98 0 3.96 0 6 0 C6.99 1.98 7.98 3.96 9 6 C6.36 5.67 3.72 5.34 1 5 C2.32 4.34 3.64 3.68 5 3 C2.03 2.505 2.03 2.505 -1 2 C-0.67 1.34 -0.34 0.68 0 0 Z " fill="#48B1D3" transform="translate(54,34)"/>
<path d="M0 0 C3.26008643 3.16952847 6.22237877 6.39937989 9 10 C6 10 6 10 4.4375 8.5625 C3.963125 8.046875 3.48875 7.53125 3 7 C2.34 6.67 1.68 6.34 1 6 C0.67 6.99 0.34 7.98 0 9 C0 6.03 0 3.06 0 0 Z " fill="#124969" transform="translate(32,58)"/>
<path d="M0 0 C0.66 0.33 1.32 0.66 2 1 C1.375 2.9375 1.375 2.9375 0 5 C-3.125 5.75 -3.125 5.75 -6 6 C-4.98545548 3.4636387 -4.3146444 2.20648539 -2 0.6875 C-1.34 0.460625 -0.68 0.23375 0 0 Z " fill="#86BF6D" transform="translate(81,47)"/>
<path d="M0 0 C1.98 0.495 1.98 0.495 4 1 C4 1.66 4 2.32 4 3 C3.34 3 2.68 3 2 3 C1.67 4.65 1.34 6.3 1 8 C1.99 8.33 2.98 8.66 4 9 C2.35 9.33 0.7 9.66 -1 10 C-0.67 6.7 -0.34 3.4 0 0 Z " fill="#44A4BF" transform="translate(64,29)"/>
<path d="M0 0 C1.9375 0.3125 1.9375 0.3125 4 1 C4.33 1.99 4.66 2.98 5 4 C-0.29230769 7.07692308 -0.29230769 7.07692308 -3.875 6.6875 C-4.57625 6.460625 -5.2775 6.23375 -6 6 C-3.66785852 4.79371992 -1.50357861 3.8345262 1 3 C0.67 2.01 0.34 1.02 0 0 Z " fill="#2C6782" transform="translate(65,35)"/>
<path d="M0 0 C0.33 0.66 0.66 1.32 1 2 C-0.093125 2.309375 -1.18625 2.61875 -2.3125 2.9375 C-4.55407994 3.58337897 -6.7869351 4.2623117 -9 5 C-8.625 3.0625 -8.625 3.0625 -8 1 C-5.29120665 -0.35439668 -2.99066732 -0.06501451 0 0 Z " fill="#55BCE1" transform="translate(59,36)"/>
<path d="M0 0 C0.99 0.33 1.98 0.66 3 1 C3.33 3.31 3.66 5.62 4 8 C3.34 8 2.68 8 2 8 C2 7.34 2 6.68 2 6 C1.34 6 0.68 6 0 6 C0 4.02 0 2.04 0 0 Z " fill="#66947A" transform="translate(22,34)"/>
<path d="M0 0 C2.875 -0.125 2.875 -0.125 6 0 C8 2 8 2 8 5 C2.25 3.125 2.25 3.125 0 2 C0 1.34 0 0.68 0 0 Z " fill="#66B885" transform="translate(56,26)"/>
<path d="M0 0 C3.24208567 0.35049575 4.61527704 0.56221181 6.8125 3.0625 C7.204375 3.701875 7.59625 4.34125 8 5 C3.77471908 5 2.95481492 4.74375671 0 2 C0 1.34 0 0.68 0 0 Z " fill="#59B5D8" transform="translate(37,58)"/>
<path d="M0 0 C2.05078125 0.03255208 4.1015625 0.06510417 6.15234375 0.09765625 C6.15234375 0.75765625 6.15234375 1.41765625 6.15234375 2.09765625 C3.51234375 3.08765625 0.87234375 4.07765625 -1.84765625 5.09765625 C-2.17765625 3.77765625 -2.50765625 2.45765625 -2.84765625 1.09765625 C-1.84765625 0.09765625 -1.84765625 0.09765625 0 0 Z " fill="#CAECF2" transform="translate(43.84765625,21.90234375)"/>
<path d="M0 0 C1.9375 0.6875 1.9375 0.6875 4 2 C4.75 4.625 4.75 4.625 5 7 C3.35 6.67 1.7 6.34 0 6 C0 4.02 0 2.04 0 0 Z " fill="#6BA55F" transform="translate(34,64)"/>
<path d="M0 0 C0.66 0.99 1.32 1.98 2 3 C1.3125 6.125 1.3125 6.125 0 9 C-0.99 9.33 -1.98 9.66 -3 10 C-2.49287967 6.28111761 -1.88391785 3.26545761 0 0 Z " fill="#558B6D" transform="translate(28,38)"/>
<path d="M0 0 C0.86625 0.7115625 0.86625 0.7115625 1.75 1.4375 C3.92582084 2.9484867 5.42602448 3.54036151 8 4 C8 4.66 8 5.32 8 6 C6.68 5.67 5.36 5.34 4 5 C3.67 5.99 3.34 6.98 3 8 C0 2.25 0 2.25 0 0 Z " fill="#1E506F" transform="translate(15,49)"/>
<path d="M0 0 C2.475 0.99 2.475 0.99 5 2 C5 3.32 5 4.64 5 6 C3.68 5.67 2.36 5.34 1 5 C0.67 3.35 0.34 1.7 0 0 Z " fill="#83B676" transform="translate(17,47)"/>
<path d="M0 0 C0.78375 0.04125 1.5675 0.0825 2.375 0.125 C2.705 0.785 3.035 1.445 3.375 2.125 C2.281875 2.41375 1.18875 2.7025 0.0625 3 C-3.66513845 3.94393204 -3.66513845 3.94393204 -6.625 6.125 C-3.85227273 0.18344156 -3.85227273 0.18344156 0 0 Z " fill="#338BB1" transform="translate(55.625,38.875)"/>
<path d="M0 0 C0.66 0 1.32 0 2 0 C1.67 1.98 1.34 3.96 1 6 C0.34 5.34 -0.32 4.68 -1 4 C-2.485 6.475 -2.485 6.475 -4 9 C-4.33 8.34 -4.66 7.68 -5 7 C-1.125 1.125 -1.125 1.125 0 0 Z " fill="#A4DBD4" transform="translate(34,28)"/>
<path d="M0 0 C-1.36125 0.6496875 -1.36125 0.6496875 -2.75 1.3125 C-5.92774872 2.84980836 -5.92774872 2.84980836 -8.25 4.6875 C-10 6 -10 6 -12 6 C-12 5.34 -12 4.68 -12 4 C-10.390625 2.67578125 -10.390625 2.67578125 -8.25 1.3125 C-7.55390625 0.85488281 -6.8578125 0.39726562 -6.140625 -0.07421875 C-3.60909275 -1.16906025 -2.53899138 -0.9435441 0 0 Z " fill="#B4E8F3" transform="translate(53,26)"/>
<path d="M0 0 C0.66 0.33 1.32 0.66 2 1 C2 1.66 2 2.32 2 3 C3.32 2.67 4.64 2.34 6 2 C6.33 2.66 6.66 3.32 7 4 C5.02 4.33 3.04 4.66 1 5 C0.67 4.01 0.34 3.02 0 2 C-0.99 1.67 -1.98 1.34 -3 1 C-2.01 0.67 -1.02 0.34 0 0 Z " fill="#366882" transform="translate(34,20)"/>
<path d="M0 0 C0.103125 0.639375 0.20625 1.27875 0.3125 1.9375 C0.539375 2.618125 0.76625 3.29875 1 4 C1.99 4.33 2.98 4.66 4 5 C3.01 5.33 2.02 5.66 1 6 C-0.66710346 7.49985609 -0.66710346 7.49985609 -2 9 C-2.20140476 5.37471432 -1.85776765 3.13498292 0 0 Z " fill="#144B6A" transform="translate(28,33)"/>
<path d="M0 0 C2.475 0.495 2.475 0.495 5 1 C4.34 2.65 3.68 4.3 3 6 C2.34 6 1.68 6 1 6 C0.67 4.02 0.34 2.04 0 0 Z " fill="#7B9AAA" transform="translate(29,78)"/>
<path d="M0 0 C0.99 0.33 1.98 0.66 3 1 C1.515 3.475 1.515 3.475 0 6 C-0.99 5.67 -1.98 5.34 -3 5 C-1.125 1.125 -1.125 1.125 0 0 Z " fill="#7EB276" transform="translate(78,54)"/>
<path d="M0 0 C0.66 0.33 1.32 0.66 2 1 C2 3.31 2 5.62 2 8 C1.67 7.01 1.34 6.02 1 5 C0.01 5.33 -0.98 5.66 -2 6 C-1.34 4.02 -0.68 2.04 0 0 Z " fill="#7ABB4D" transform="translate(29,53)"/>
<path d="M0 0 C0.66 0 1.32 0 2 0 C1.67 1.65 1.34 3.3 1 5 C-0.32 5.33 -1.64 5.66 -3 6 C-1.125 1.125 -1.125 1.125 0 0 Z " fill="#7BAF7E" transform="translate(26,49)"/>
<path d="M0 0 C0.66 0 1.32 0 2 0 C2 0.66 2 1.32 2 2 C3.98 1.67 5.96 1.34 8 1 C4.55549263 3.29633824 2.06187717 3.54016485 -2 4 C-2 3.34 -2 2.68 -2 2 C-1.34 2 -0.68 2 0 2 C0 1.34 0 0.68 0 0 Z " fill="#4189A5" transform="translate(37,15)"/>
<path d="M0 0 C1.14926266 0.95421808 2.29430541 1.91352045 3.4375 2.875 C4.07558594 3.40867188 4.71367188 3.94234375 5.37109375 4.4921875 C7 6 7 6 8 8 C5.04987143 6.63029745 2.4347778 5.17390875 0 3 C0 2.01 0 1.02 0 0 Z " fill="#3996BB" transform="translate(34,59)"/>
</svg>
